<mxfile host="app.diagrams.net" agent="Mozilla/5.0 (Macintosh; Intel Mac OS X 10_15_7) AppleWebKit/537.36 (KHTML, like Gecko) Chrome/130.0.0.0 Safari/537.36" version="24.7.17">
  <diagram name="Page-1" id="74e2e168-ea6b-b213-b513-2b3c1d86103e">
    <mxGraphModel dx="596" dy="379" grid="1" gridSize="10" guides="1" tooltips="1" connect="1" arrows="1" fold="1" page="1" pageScale="1" pageWidth="1100" pageHeight="850" background="none" math="0" shadow="0">
      <root>
        <mxCell id="0" />
        <mxCell id="1" parent="0" />
        <mxCell id="xPAFDYVkaVms7dZqZz4D-2" value="query(emb/content/answer/rag_answer/analysis)" style="rounded=0;whiteSpace=wrap;html=1;" vertex="1" parent="1">
          <mxGeometry x="101" y="70" width="290" height="30" as="geometry" />
        </mxCell>
        <mxCell id="xPAFDYVkaVms7dZqZz4D-7" style="edgeStyle=none;curved=1;rounded=0;orthogonalLoop=1;jettySize=auto;html=1;entryX=0.5;entryY=0;entryDx=0;entryDy=0;fontSize=12;startSize=8;endSize=8;exitX=0.5;exitY=1;exitDx=0;exitDy=0;" edge="1" parent="1" source="xPAFDYVkaVms7dZqZz4D-2" target="xPAFDYVkaVms7dZqZz4D-8">
          <mxGeometry relative="1" as="geometry">
            <mxPoint x="195.00470588235294" y="110" as="sourcePoint" />
            <mxPoint x="203.24" y="180" as="targetPoint" />
          </mxGeometry>
        </mxCell>
        <mxCell id="xPAFDYVkaVms7dZqZz4D-15" value="搜索数据库" style="edgeLabel;html=1;align=center;verticalAlign=middle;resizable=0;points=[];fontSize=12;" vertex="1" connectable="0" parent="xPAFDYVkaVms7dZqZz4D-7">
          <mxGeometry x="-0.0009" y="-2" relative="1" as="geometry">
            <mxPoint as="offset" />
          </mxGeometry>
        </mxCell>
        <mxCell id="xPAFDYVkaVms7dZqZz4D-11" style="edgeStyle=none;curved=1;rounded=0;orthogonalLoop=1;jettySize=auto;html=1;exitX=0;exitY=0.5;exitDx=0;exitDy=0;entryX=1;entryY=0.5;entryDx=0;entryDy=0;fontSize=12;startSize=8;endSize=8;" edge="1" parent="1" source="xPAFDYVkaVms7dZqZz4D-8" target="xPAFDYVkaVms7dZqZz4D-9">
          <mxGeometry relative="1" as="geometry" />
        </mxCell>
        <mxCell id="xPAFDYVkaVms7dZqZz4D-13" value="没有" style="edgeLabel;html=1;align=center;verticalAlign=middle;resizable=0;points=[];fontSize=12;" vertex="1" connectable="0" parent="xPAFDYVkaVms7dZqZz4D-11">
          <mxGeometry x="-0.1111" y="-1" relative="1" as="geometry">
            <mxPoint as="offset" />
          </mxGeometry>
        </mxCell>
        <mxCell id="xPAFDYVkaVms7dZqZz4D-8" value="是否有检索结果" style="rhombus;whiteSpace=wrap;html=1;" vertex="1" parent="1">
          <mxGeometry x="198" y="150" width="95" height="80" as="geometry" />
        </mxCell>
        <mxCell id="xPAFDYVkaVms7dZqZz4D-9" value="直接入库，簇的数目加1" style="rounded=0;whiteSpace=wrap;html=1;" vertex="1" parent="1">
          <mxGeometry x="60" y="175" width="80" height="30" as="geometry" />
        </mxCell>
        <mxCell id="xPAFDYVkaVms7dZqZz4D-18" value="" style="edgeStyle=none;curved=1;rounded=0;orthogonalLoop=1;jettySize=auto;html=1;fontSize=12;startSize=8;endSize=8;" edge="1" parent="1" source="xPAFDYVkaVms7dZqZz4D-10" target="xPAFDYVkaVms7dZqZz4D-17">
          <mxGeometry relative="1" as="geometry" />
        </mxCell>
        <mxCell id="xPAFDYVkaVms7dZqZz4D-10" value="将新题加入到所有检索的簇中，更新中心表示/答案投票结果" style="rounded=0;whiteSpace=wrap;html=1;" vertex="1" parent="1">
          <mxGeometry x="190" y="270" width="111" height="50" as="geometry" />
        </mxCell>
        <mxCell id="xPAFDYVkaVms7dZqZz4D-12" style="edgeStyle=none;curved=1;rounded=0;orthogonalLoop=1;jettySize=auto;html=1;fontSize=12;startSize=8;endSize=8;exitX=0.5;exitY=1;exitDx=0;exitDy=0;entryX=0.5;entryY=0;entryDx=0;entryDy=0;" edge="1" parent="1" source="xPAFDYVkaVms7dZqZz4D-8" target="xPAFDYVkaVms7dZqZz4D-10">
          <mxGeometry relative="1" as="geometry">
            <mxPoint x="235" y="271" as="targetPoint" />
          </mxGeometry>
        </mxCell>
        <mxCell id="xPAFDYVkaVms7dZqZz4D-14" value="有" style="edgeLabel;html=1;align=center;verticalAlign=middle;resizable=0;points=[];fontSize=12;" vertex="1" connectable="0" parent="xPAFDYVkaVms7dZqZz4D-12">
          <mxGeometry x="-0.2668" y="-2" relative="1" as="geometry">
            <mxPoint as="offset" />
          </mxGeometry>
        </mxCell>
        <mxCell id="xPAFDYVkaVms7dZqZz4D-16" style="edgeStyle=none;curved=1;rounded=0;orthogonalLoop=1;jettySize=auto;html=1;entryX=0.5;entryY=0;entryDx=0;entryDy=0;fontSize=12;startSize=8;endSize=8;" edge="1" parent="1" source="xPAFDYVkaVms7dZqZz4D-10" target="xPAFDYVkaVms7dZqZz4D-10">
          <mxGeometry relative="1" as="geometry" />
        </mxCell>
        <mxCell id="xPAFDYVkaVms7dZqZz4D-19" style="edgeStyle=none;curved=1;rounded=0;orthogonalLoop=1;jettySize=auto;html=1;fontSize=12;startSize=8;endSize=8;entryX=1;entryY=0.5;entryDx=0;entryDy=0;" edge="1" parent="1" source="xPAFDYVkaVms7dZqZz4D-17" target="xPAFDYVkaVms7dZqZz4D-20">
          <mxGeometry relative="1" as="geometry">
            <mxPoint x="130" y="370" as="targetPoint" />
          </mxGeometry>
        </mxCell>
        <mxCell id="xPAFDYVkaVms7dZqZz4D-22" value="没有改变" style="edgeLabel;html=1;align=center;verticalAlign=middle;resizable=0;points=[];fontSize=12;" vertex="1" connectable="0" parent="xPAFDYVkaVms7dZqZz4D-19">
          <mxGeometry x="-0.2119" y="-1" relative="1" as="geometry">
            <mxPoint as="offset" />
          </mxGeometry>
        </mxCell>
        <mxCell id="xPAFDYVkaVms7dZqZz4D-21" style="edgeStyle=none;curved=1;rounded=0;orthogonalLoop=1;jettySize=auto;html=1;exitX=0.5;exitY=1;exitDx=0;exitDy=0;fontSize=12;startSize=8;endSize=8;entryX=0.5;entryY=0;entryDx=0;entryDy=0;" edge="1" parent="1" source="xPAFDYVkaVms7dZqZz4D-17" target="xPAFDYVkaVms7dZqZz4D-24">
          <mxGeometry relative="1" as="geometry">
            <mxPoint x="245" y="470" as="targetPoint" />
          </mxGeometry>
        </mxCell>
        <mxCell id="xPAFDYVkaVms7dZqZz4D-23" value="改变了" style="edgeLabel;html=1;align=center;verticalAlign=middle;resizable=0;points=[];fontSize=12;" vertex="1" connectable="0" parent="xPAFDYVkaVms7dZqZz4D-21">
          <mxGeometry x="-0.1902" y="1" relative="1" as="geometry">
            <mxPoint as="offset" />
          </mxGeometry>
        </mxCell>
        <mxCell id="xPAFDYVkaVms7dZqZz4D-17" value="中心题干是否改变" style="rhombus;whiteSpace=wrap;html=1;" vertex="1" parent="1">
          <mxGeometry x="193.5" y="348" width="102.5" height="80" as="geometry" />
        </mxCell>
        <mxCell id="xPAFDYVkaVms7dZqZz4D-20" value="无后续操作" style="rounded=0;whiteSpace=wrap;html=1;" vertex="1" parent="1">
          <mxGeometry x="33" y="372" width="80" height="30" as="geometry" />
        </mxCell>
        <mxCell id="xPAFDYVkaVms7dZqZz4D-24" value="更新中心题干" style="rounded=0;whiteSpace=wrap;html=1;" vertex="1" parent="1">
          <mxGeometry x="187" y="480" width="115" height="40" as="geometry" />
        </mxCell>
        <mxCell id="xPAFDYVkaVms7dZqZz4D-30" value="中心表示=簇内所有题干embedding的均值&lt;div&gt;&lt;br&gt;&lt;div&gt;新的答案等于簇内答案计数次数最多的答案&lt;/div&gt;&lt;/div&gt;&lt;div&gt;&lt;br&gt;&lt;/div&gt;&lt;div&gt;zhon&amp;nbsp;&lt;/div&gt;" style="rounded=0;whiteSpace=wrap;html=1;" vertex="1" parent="1">
          <mxGeometry x="350" y="229" width="160" height="271" as="geometry" />
        </mxCell>
      </root>
    </mxGraphModel>
  </diagram>
</mxfile>
